<svg width="258" height="50" viewBox="0 0 258 50" fill="none" xmlns="http://www.w3.org/2000/svg">
    <path
      d="M256.813 18.1406H257.319V20.1881H256.813C254.852 20.1881 253.289 20.7874 252.124 21.986C250.97 23.1846 250.392 24.7993 250.392 26.8303V35.8029H248.448V18.4236H250.392V22.0692C251.024 20.8263 251.89 19.8608 252.99 19.1727C254.101 18.4846 255.375 18.1406 256.813 18.1406Z"
      fill="#1D267E" />
    <path
      d="M235.264 36.2193C232.694 36.2193 230.543 35.3481 228.811 33.6057C227.09 31.8633 226.23 29.6992 226.23 27.1134C226.23 24.5276 227.09 22.3635 228.811 20.6211C230.543 18.8787 232.694 18.0076 235.264 18.0076C236.942 18.0076 238.466 18.4071 239.839 19.2061C241.222 19.9941 242.305 21.0872 243.09 22.4856C243.874 23.8728 244.266 25.4154 244.266 27.1134C244.266 28.8114 243.874 30.3596 243.09 31.7579C242.305 33.1451 241.222 34.2383 239.839 35.0373C238.466 35.8253 236.942 36.2193 235.264 36.2193ZM230.249 32.2573C231.589 33.6223 233.26 34.3049 235.264 34.3049C237.268 34.3049 238.935 33.6223 240.263 32.2573C241.592 30.8812 242.256 29.1665 242.256 27.1134C242.256 25.0603 241.592 23.3512 240.263 21.9862C238.935 20.61 237.268 19.9219 235.264 19.9219C233.26 19.9219 231.589 20.61 230.249 21.9862C228.909 23.3512 228.24 25.0603 228.24 27.1134C228.24 29.1665 228.909 30.8812 230.249 32.2573Z"
      fill="#1D267E" />
    <path
      d="M224.188 20.2214H218.748V31.3415C218.748 33.3169 219.75 34.3047 221.754 34.3047C222.582 34.3047 223.393 34.0883 224.188 33.6554V35.5365C223.35 35.9915 222.413 36.2191 221.378 36.2191C219.897 36.2191 218.764 35.8362 217.98 35.0704C217.196 34.2936 216.804 33.1505 216.804 31.6412V20.2214H213.488V18.4235H216.804V13.5793H218.748V18.4235H224.188V20.2214Z"
      fill="#1D267E" />
    <path
      d="M203.244 36.2193C200.674 36.2193 198.523 35.3481 196.791 33.6057C195.071 31.8633 194.21 29.6992 194.21 27.1134C194.21 24.5276 195.071 22.3635 196.791 20.6211C198.523 18.8787 200.674 18.0076 203.244 18.0076C204.911 18.0076 206.425 18.396 207.786 19.1728C209.158 19.9497 210.231 21.0151 211.004 22.369L209.305 23.4344C208.706 22.3579 207.873 21.5034 206.806 20.8708C205.738 20.2382 204.551 19.9219 203.244 19.9219C201.24 19.9219 199.569 20.61 198.229 21.9862C196.889 23.3512 196.22 25.0603 196.22 27.1134C196.22 29.1665 196.889 30.8812 198.229 32.2573C199.569 33.6223 201.24 34.3049 203.244 34.3049C204.551 34.3049 205.738 33.9886 206.806 33.356C207.873 32.7234 208.706 31.8689 209.305 30.7924L211.004 31.8411C210.22 33.1951 209.147 34.266 207.786 35.054C206.425 35.8308 204.911 36.2193 203.244 36.2193Z"
      fill="#1D267E" />
    <path
      d="M182.137 36.2193C179.567 36.2193 177.416 35.3481 175.684 33.6057C173.964 31.8633 173.103 29.6992 173.103 27.1134C173.103 24.5276 173.964 22.3635 175.684 20.6211C177.416 18.8787 179.567 18.0076 182.137 18.0076C183.815 18.0076 185.339 18.4071 186.712 19.2061C188.095 19.9941 189.178 21.0872 189.963 22.4856C190.747 23.8728 191.139 25.4154 191.139 27.1134C191.139 28.8114 190.747 30.3596 189.963 31.7579C189.178 33.1451 188.095 34.2383 186.712 35.0373C185.339 35.8253 183.815 36.2193 182.137 36.2193ZM177.122 32.2573C178.462 33.6223 180.133 34.3049 182.137 34.3049C184.141 34.3049 185.808 33.6223 187.136 32.2573C188.465 30.8812 189.13 29.1665 189.13 27.1134C189.13 25.0603 188.465 23.3512 187.136 21.9862C185.808 20.61 184.141 19.9219 182.137 19.9219C180.133 19.9219 178.462 20.61 177.122 21.9862C175.782 23.3512 175.113 25.0603 175.113 27.1134C175.113 29.1665 175.782 30.8812 177.122 32.2573Z"
      fill="#1D267E" />
    <path
      d="M158.155 12.2808C160.333 12.2808 162.31 12.7913 164.085 13.8123C165.86 14.8333 167.249 16.2428 168.251 18.0406C169.264 19.8274 169.77 21.825 169.77 24.0335C169.77 25.6871 169.471 27.2408 168.872 28.6946C168.284 30.1485 167.478 31.397 166.454 32.4402C165.43 33.4834 164.2 34.3046 162.762 34.9039C161.324 35.5032 159.789 35.8029 158.155 35.8029H149.349V12.2808H158.155ZM158.122 33.8219C160.845 33.8219 163.116 32.8896 164.935 31.0252C166.754 29.1607 167.663 26.8302 167.663 24.0335C167.663 22.1912 167.249 20.5266 166.421 19.0394C165.594 17.5412 164.45 16.3704 162.991 15.5269C161.542 14.6835 159.919 14.2618 158.122 14.2618H151.392V33.8219H158.122Z"
      fill="#1D267E" />
    <path
      d="M133.078 18.4236H137.93L129.5 38.8327C129.032 40.0202 128.329 40.958 127.393 41.6461C126.456 42.3452 125.427 42.6948 124.305 42.6948C123.532 42.6948 122.731 42.5339 121.904 42.212C121.087 41.8902 120.395 41.4685 119.829 40.9469L121.495 37.4677C122.072 38.0892 122.764 38.3999 123.57 38.3999C124.452 38.3999 125.1 37.9449 125.514 37.0349L126.217 35.5366L119.257 18.4236H124.207L128.667 30.2429L133.078 18.4236Z"
      fill="#1D267E" />
    <path
      d="M117.722 22.4687H113.131V29.6935C113.131 31.1806 113.915 31.9242 115.483 31.9242C116.148 31.9242 116.894 31.73 117.722 31.3415V35.47C116.818 35.9694 115.756 36.2191 114.536 36.2191C112.63 36.2191 111.192 35.703 110.223 34.6709C109.265 33.6277 108.785 32.2072 108.785 30.4093V22.4687H106.073V18.4236H108.785V14.0121H113.131V18.4236H117.722V22.4687Z"
      fill="#1D267E" />
    <path
      d="M95.438 36.2192C93.0311 36.2192 91.1033 35.5533 89.6548 34.2215C88.2063 32.8787 87.482 31.0975 87.482 28.8779V18.4236H91.8276V28.2619C91.8276 29.3717 92.1543 30.2596 92.8078 30.9255C93.4722 31.5913 94.3489 31.9243 95.438 31.9243C96.5271 31.9243 97.3984 31.5913 98.0519 30.9255C98.7163 30.2596 99.0484 29.3717 99.0484 28.2619V18.4236H103.394V28.8779C103.394 31.0864 102.664 32.862 101.205 34.2049C99.7564 35.5477 97.8341 36.2192 95.438 36.2192Z"
      fill="#1D267E" />
    <path
      d="M72.632 12.2809C74.2874 12.2809 75.8449 12.5806 77.3043 13.1799C78.7637 13.7791 80.0107 14.6004 81.0454 15.6436C82.091 16.6757 82.9132 17.9187 83.5123 19.3725C84.1113 20.8263 84.4108 22.38 84.4108 24.0336C84.4108 25.6872 84.1113 27.2409 83.5123 28.6948C82.9132 30.1486 82.091 31.3971 81.0454 32.4403C80.0107 33.4835 78.7637 34.3048 77.3043 34.904C75.8449 35.5033 74.2874 35.803 72.632 35.803H63.5977V12.2809H72.632ZM72.534 31.3749C74.5706 31.3749 76.2642 30.6757 77.6147 29.2774C78.9761 27.8791 79.6568 26.1311 79.6568 24.0336C79.6568 21.9361 78.9761 20.1937 77.6147 18.8065C76.2642 17.4082 74.5706 16.709 72.534 16.709H68.221V31.3749H72.534Z"
      fill="#1D267E" />
    <path
      d="M0 10.2808C0 4.60286 4.51712 0 10.0893 0H38.9792C44.5514 0 49.0685 4.60287 49.0685 10.2808V39.7192C49.0685 45.3971 44.5514 50 38.9792 50H10.0892C4.5171 50 0 45.3971 0 39.7192V10.2808Z"
      fill="#1D267E" />
    <path
      d="M23.9375 11.6072C26.391 11.6072 28.6175 12.1885 30.617 13.3512C32.6165 14.5138 34.1806 16.1188 35.3092 18.1662C36.45 20.2008 37.0204 22.4756 37.0204 24.9905C37.0204 26.8736 36.6831 28.6428 36.0084 30.2984C35.346 31.9539 34.4382 33.3757 33.2851 34.5636C32.132 35.7516 30.7458 36.6868 29.1265 37.3692C27.5073 38.0517 25.7776 38.3929 23.9375 38.3929H14.0196V11.6072H23.9375ZM23.9007 36.137C26.9675 36.137 29.5252 35.0755 31.5738 32.9523C33.6224 30.8292 34.6467 28.1753 34.6467 24.9905C34.6467 22.8927 34.1806 20.997 33.2483 19.3035C32.316 17.5975 31.0279 16.2642 29.3841 15.3037C27.7526 14.3432 25.9248 13.863 23.9007 13.863H16.3197V36.137H23.9007Z"
      fill="white" />
  </svg>