<svg width="95" height="93" viewBox="0 0 95 93" fill="none" xmlns="http://www.w3.org/2000/svg">
<g clip-path="url(#clip0_1_595)">
<path d="M56.6333 73.4484C54.2146 76.6866 50.9864 78.8163 47.2667 80.2263C44.0481 81.4516 40.7139 82.0837 37.2833 82.2976C34.826 82.4532 32.3784 82.4338 29.9403 82.1031C25.8063 81.5488 22.0191 80.0707 18.6946 77.5521C11.7949 72.3398 7.22717 65.5327 5.5697 56.9461C3.90259 48.3206 5.30952 40.2201 10.2434 32.8685C11.3323 31.2348 12.6236 29.7761 14.0787 28.4731C14.1462 28.405 14.2329 28.3564 14.3582 28.2688C13.3174 27.3547 12.6429 26.2656 12.296 25.0014C11.8527 23.3969 11.4094 21.8021 11.0528 20.1781C10.4843 17.572 10.3012 14.927 10.8119 12.2819C11.0721 10.9205 11.525 9.63688 12.2092 8.43106C12.4309 8.04208 12.5658 7.59476 12.8067 7.22523C13.7607 5.78602 15.1387 5.00807 16.8251 4.89137C19.3306 4.71633 21.1808 5.96106 22.6841 7.83787C24.303 9.86054 25.1125 12.2527 25.6232 14.7714C26.105 17.183 26.1628 19.6141 25.6232 22.1327C31.5111 20.0031 37.3604 20.0323 43.2772 22.0647C43.2386 21.6757 43.1808 21.3742 43.1712 21.0825C43.123 17.3094 43.4121 13.585 44.8383 10.0356C45.4454 8.5283 46.2356 7.12799 47.3341 5.92216C47.4209 5.82492 47.5172 5.7374 47.5847 5.6207C49.0205 2.96594 53.328 2.49917 55.6408 5.64015C56.4888 6.79736 56.9899 8.10043 57.2404 9.50074C58.0499 14.1101 57.5584 18.5542 55.4577 22.7551C54.7831 24.1165 53.8677 25.2932 52.6631 26.2364C52.6149 26.2753 52.5764 26.3337 52.5957 26.3142C53.8291 27.3061 55.1011 28.2397 56.2575 29.2996C59.8615 32.6254 62.2899 36.7388 63.8414 41.3773C65.2194 45.5005 65.7494 49.75 65.47 54.0871C65.2194 58.0158 64.2076 61.7597 62.5598 65.3188C62.4827 65.4841 62.4152 65.6397 62.3574 65.7467C64.5545 66.8844 66.7613 67.993 68.9295 69.16C74.5572 72.194 80.1078 75.3544 85.4849 78.8163C85.9956 79.1469 86.4871 79.5164 86.9978 79.8471C87.1135 79.9249 87.3062 79.9735 87.4218 79.9346C89.8502 79.1566 93.3194 80.6737 94.0806 84.2328C94.8805 87.9572 92.6544 91.4969 88.848 92.5763C87.0942 93.0723 85.3596 93.0917 83.7118 92.1776C82.5265 91.5164 81.746 90.5245 81.5532 89.1436C81.4954 88.7449 81.5821 88.317 81.6111 87.8794C77.3325 86.0221 73.2755 83.6007 69.2956 81.0335C65.3061 78.4662 61.4419 75.7239 57.8668 72.6413C57.4524 72.9136 57.0477 73.1859 56.643 73.4581C56.749 73.1664 56.8164 72.8358 56.9802 72.5732C57.491 71.7661 58.0595 70.9979 58.5703 70.2005C62.4441 64.1616 64.4196 57.5976 63.986 50.3627C63.7354 46.1326 62.7139 42.1067 60.8541 38.3044C58.6666 33.8409 55.5926 30.1748 51.2947 27.6076C50.9478 27.4034 50.6491 27.3742 50.2636 27.4909C48.2496 28.0938 46.3994 27.8604 44.9539 26.1878C44.4914 25.653 44.2216 24.9528 43.8457 24.3305C43.759 24.1749 43.6434 23.9804 43.4892 23.9318C40.9355 22.9982 38.3048 22.3759 35.5777 22.2397C32.0025 22.0647 28.5719 22.794 25.2377 24.029C25.0932 24.0873 24.9294 24.2138 24.8619 24.3499C23.6188 27.0338 21.5759 28.7064 18.6946 29.3385C17.8273 29.533 16.9793 29.5525 16.1409 29.2316C15.8711 29.1343 15.7073 29.1927 15.5049 29.3677C13.7896 30.8361 12.3249 32.5281 11.1203 34.4341C6.29244 42.0969 5.27097 50.353 7.50663 59.0271C9.29901 65.9606 13.1825 71.6008 18.6946 76.0935C21.9999 78.7871 25.787 80.4889 29.9981 81.1112C33.8238 81.685 37.6688 81.685 41.4944 81.0529C47.0258 80.1291 51.9211 77.8925 55.9973 73.9541C56.1901 73.7693 56.4213 73.6137 56.6333 73.4484ZM58.0692 72.2718C66.2216 77.202 74.3355 82.1129 82.4012 86.9848C82.7096 86.7028 83.1047 86.3819 83.442 86.0221C84.7333 84.6704 85.6487 83.1048 86.1884 81.3057C86.2847 80.9848 86.2173 80.8487 85.9282 80.7125C85.35 80.4403 84.7718 80.1485 84.2129 79.8373C78.4118 76.6477 72.7744 73.1956 67.2238 69.5878C65.5278 68.489 63.8703 67.3318 62.1743 66.1843C61.1239 68.3334 59.717 70.3561 58.0692 72.2718ZM22.5973 24.8945C22.6455 24.9236 22.6841 24.9431 22.7322 24.9723C23.0599 24.2138 23.455 23.4747 23.6959 22.687C24.6306 19.5558 24.4186 16.4245 23.5513 13.3224C22.9828 11.2803 22.0962 9.4035 20.5737 7.86704C17.6538 4.92055 13.3174 6.47645 12.2285 9.90916C11.4576 12.3403 11.3805 14.8005 11.7178 17.29C11.7949 17.8346 11.9009 18.3694 11.9972 18.914C12.7007 17.5234 13.7992 16.8038 15.264 16.6579C16.4975 16.5412 17.6249 16.9205 18.6078 17.6498C21.0073 19.4488 22.2793 21.9091 22.5973 24.8945ZM52.9811 23.4066C53.0293 23.4261 53.0775 23.4358 53.1257 23.4553C53.5786 22.5801 54.1086 21.7243 54.4844 20.8199C55.7468 17.7081 56.1611 14.4602 55.8335 11.1247C55.6793 9.53964 55.3035 8.00318 54.4266 6.64177C52.8366 4.18149 49.7529 4.09397 47.6714 6.4959C45.985 8.44078 45.3201 10.9497 44.8865 13.4683C44.7419 14.3046 44.6552 15.1409 44.5396 16.0355C45.8501 15.5007 46.3898 15.4132 47.0836 15.5007C48.7796 15.7244 50.0034 16.6676 50.9382 18.0485C52.0271 19.6725 52.7595 21.4423 52.9811 23.4066ZM82.6036 88.5893C82.9794 89.6104 83.654 90.3883 84.6851 90.8162C85.5909 91.1955 86.5353 91.2733 87.5086 91.1371C90.7079 90.6995 92.9532 87.9572 92.7315 84.7287C92.5581 82.2587 90.2935 80.2847 87.8073 80.4694C87.9422 80.9362 87.8458 81.2766 87.3062 81.2766C87.0653 84.5926 85.7162 87.1209 82.6036 88.5893ZM47.2763 25.7016C45.5225 23.6206 44.9925 21.1797 44.9539 18.5444C44.3372 20.3921 44.7708 24.3985 47.2763 25.7016ZM47.6136 23.4553C47.9605 23.8442 48.2207 24.1943 48.5387 24.4666C48.8182 24.7 49.1362 24.6416 49.3771 24.3305C49.8782 23.6789 49.7529 21.8021 49.3289 21.277C49.3963 22.6968 48.982 23.2608 47.6136 23.4553ZM16.4107 25.371C16.6516 25.6821 16.8251 25.9544 17.0371 26.1781C17.5575 26.7324 18.0297 26.6351 18.3091 25.9253C18.6657 25.0014 18.444 24.1165 18.1549 23.2316C18.0586 24.7389 17.6924 25.2154 16.4107 25.371ZM14.84 26.0517C14.5702 25.1862 14.2232 24.3013 14.0209 23.3775C13.8185 22.4634 13.7607 21.5104 13.6354 20.5768C13.3367 22.5703 13.2981 24.5152 14.84 26.0517ZM50.5913 25.5557C51.95 24.9917 52.0367 22.794 51.1502 20.9658C51.5067 22.5509 51.6995 24.1262 50.5913 25.5557ZM19.6293 27.1603C20.7568 26.8005 20.7182 24.4958 19.8799 22.8134C20.2268 25.6433 20.2268 25.6432 19.6293 27.1603ZM46.6114 17.5039C46.5536 17.6206 46.5343 17.6595 46.5343 17.6595C47.0643 18.0485 47.5847 18.4375 48.1147 18.8264C48.134 18.7973 48.1532 18.7778 48.1725 18.7486C47.6521 18.3402 47.1414 17.9318 46.6114 17.5039ZM16.7191 23.8345C16.6035 23.4455 16.5071 23.1344 16.3818 22.7454C16.112 23.358 16.1891 23.6303 16.7191 23.8345ZM47.7389 21.8702C47.7967 21.8507 47.8545 21.841 47.9123 21.8216C47.8256 21.5201 47.7389 21.2186 47.6521 20.9172C47.4305 21.3062 47.392 21.6368 47.7389 21.8702Z" fill="black"/>
<path d="M31.8581 20.3531C31.7232 20.1781 31.5594 20.0322 31.463 19.8377C30.4608 17.8929 30.3644 15.9091 31.3377 13.935C31.5883 13.4294 32.0508 12.9626 32.5134 12.632C33.5445 11.9026 34.8358 12.1068 35.6838 13.0404C36.262 13.6627 36.5896 14.4212 36.6474 15.2575C36.6667 15.4909 36.5125 15.841 36.3198 15.9772C36.0307 16.1814 35.7416 15.9772 35.5585 15.6951C35.2983 15.3062 35.067 14.8977 34.7876 14.5282C34.2094 13.76 33.5445 13.7503 32.9181 14.4893C32.3014 15.2186 32.0412 16.1133 31.9834 17.0371C31.9255 17.9707 31.9834 18.9042 31.993 19.8377C31.993 19.9933 31.993 20.1489 31.993 20.3045C31.9545 20.3142 31.9063 20.3337 31.8581 20.3531Z" fill="black"/>
<path d="M54.706 0.0194287C55.1204 0.0194287 55.5444 -0.0389177 55.9395 0.0291531C58.869 0.534822 61.2203 1.98376 62.9163 4.47321C63.1668 4.83301 63.3307 5.27061 63.4559 5.69848C63.5041 5.86379 63.3885 6.17498 63.2536 6.2625C63.0898 6.36946 62.7814 6.38891 62.6079 6.29167C62.3381 6.1458 62.1068 5.89297 61.8948 5.64986C60.0639 3.53966 57.915 1.84762 55.3709 0.670964C55.1204 0.554271 54.8988 0.379232 54.6675 0.233366C54.6771 0.165295 54.6964 0.0972239 54.706 0.0194287Z" fill="black"/>
<path d="M7.63184 7.80866C7.69929 7.57527 7.73784 7.31271 7.85347 7.09878C9.06767 4.7163 10.8793 2.96591 13.3463 1.93512C13.5775 1.83788 13.8377 1.76008 14.0883 1.7698C14.2714 1.77953 14.5412 1.91567 14.6086 2.06154C14.6954 2.2463 14.6761 2.54776 14.5797 2.7228C14.4545 2.94646 14.2039 3.11177 13.9919 3.27709C12.1032 4.72602 10.2144 6.16523 8.32566 7.59472C8.16184 7.72114 7.96911 7.81838 7.78602 7.93508C7.73784 7.89618 7.68965 7.85728 7.63184 7.80866Z" fill="black"/>
<path d="M65.6338 35.0078C69.0066 37.7404 72.0999 49.1665 70.0087 51.5101C69.9413 51.1989 69.8642 50.9753 69.8546 50.7419C69.8064 49.7208 69.7967 48.7095 69.7293 47.6884C69.4691 43.6917 68.332 39.9673 66.3662 36.4859C66.1253 36.0678 65.894 35.6399 65.6627 35.2218C65.6531 35.1829 65.6531 35.1245 65.6338 35.0078Z" fill="black"/>
<path d="M15.4376 78.2523C15.2352 79.5262 15.1292 80.8195 14.8112 82.0545C14.3486 83.8438 13.7416 85.5942 13.1826 87.3543C13.1152 87.578 12.9706 87.7919 12.8261 87.9864C12.7586 88.0739 12.6237 88.1128 12.5274 88.1712C12.4695 88.0545 12.3732 87.9281 12.3635 87.8114C12.3539 87.6363 12.4021 87.4613 12.4599 87.2862C13.3272 84.3884 14.1945 81.4905 15.0714 78.5926C15.1099 78.4662 15.1774 78.3398 15.2352 78.2134C15.293 78.2231 15.3701 78.2426 15.4376 78.2523Z" fill="black"/>
<path d="M7.71868 70.8617C7.57413 70.959 7.43922 71.0562 7.29468 71.1437C5.04938 72.3982 2.93899 73.8471 0.9057 75.4322C0.732244 75.5683 0.539515 75.685 0.337149 75.7823C0.260057 75.8211 0.0962372 75.792 0.0384185 75.7336C-0.00976387 75.6753 -0.00976387 75.51 0.028782 75.4322C0.11551 75.2669 0.240784 75.1113 0.375695 74.9751C2.30299 73.0011 4.61574 71.6688 7.21759 70.8325C7.36213 70.7839 7.52595 70.7645 7.6705 70.7353C7.68977 70.7742 7.70904 70.8131 7.71868 70.8617Z" fill="black"/>
<path d="M9.44338 75.8601C9.31811 76.0837 9.22175 76.3171 9.06756 76.5213C7.70882 78.3787 6.34044 80.236 4.96243 82.074C4.7697 82.3268 4.52879 82.5602 4.28787 82.7644C4.18187 82.8519 3.98914 82.8422 3.83496 82.8811C3.8446 82.7158 3.83496 82.5504 3.85423 82.3949C3.87351 82.3073 3.94096 82.2198 3.98914 82.142C5.50207 79.9249 7.227 77.8827 9.11574 75.9865C9.19284 75.9087 9.2892 75.8601 9.37593 75.792C9.3952 75.8114 9.42411 75.8406 9.44338 75.8601Z" fill="black"/>
<path d="M71.8684 37.0889C72.0901 37.3514 72.331 37.6043 72.5334 37.8863C73.7379 39.588 74.5859 41.4454 74.8557 43.5459C74.8943 43.8668 75.0485 44.2655 74.6437 44.4308C74.5859 44.46 74.2294 44.0029 74.1619 43.7306C73.603 41.6204 72.8514 39.588 71.907 37.6237C71.8395 37.4876 71.801 37.332 71.7432 37.1861C71.7913 37.1569 71.8299 37.1278 71.8684 37.0889Z" fill="black"/>
<path d="M58.0693 72.2717C59.7268 70.356 61.1241 68.3431 62.1648 66.1843C63.8705 67.3317 65.528 68.4889 67.2143 69.5878C72.7649 73.1956 78.4023 76.6574 84.2034 79.8373C84.7623 80.1485 85.3405 80.4402 85.9187 80.7125C86.2078 80.8487 86.2753 80.9848 86.1789 81.3057C85.6393 83.1047 84.7238 84.6801 83.4325 86.022C83.0856 86.3819 82.7001 86.7028 82.3918 86.9848C74.3261 82.1031 66.2218 77.202 58.0693 72.2717Z" fill="#1D267E"/>
<path d="M22.5974 24.8944C22.289 21.909 21.017 19.4488 18.5983 17.64C17.6153 16.9107 16.4879 16.5314 15.2544 16.6481C13.7897 16.794 12.6911 17.5039 11.9876 18.9042C11.8913 18.3596 11.7853 17.8248 11.7082 17.2802C11.3709 14.7811 11.448 12.3305 12.2189 9.89941C13.3078 6.46669 17.6443 4.91079 20.5641 7.85728C22.0867 9.39374 22.9732 11.2705 23.5418 13.3127C24.4091 16.4148 24.6307 19.546 23.6863 22.6773C23.4454 23.4649 23.0503 24.204 22.7227 24.9625C22.6841 24.9431 22.6359 24.9236 22.5974 24.8944Z" fill="#1D267E"/>
<path d="M52.9811 23.4066C52.7595 21.4423 52.0271 19.6724 50.9382 18.0485C50.0034 16.6676 48.7796 15.7146 47.0836 15.5007C46.3898 15.4131 45.8501 15.5007 44.5396 16.0355C44.6552 15.1506 44.7419 14.3046 44.8865 13.4683C45.3297 10.9399 45.985 8.44074 47.6714 6.49586C49.7529 4.10366 52.8365 4.19118 54.4266 6.64173C55.3035 8.00314 55.6793 9.5396 55.8335 11.1247C56.1611 14.4601 55.7468 17.7081 54.4844 20.8199C54.1086 21.734 53.5882 22.58 53.1256 23.4552C53.0775 23.4455 53.0293 23.426 52.9811 23.4066Z" fill="#1D267E"/>
<path d="M82.6035 88.5893C85.7161 87.1209 87.0652 84.5926 87.3157 81.2863C87.8457 81.2766 87.9518 80.9459 87.8168 80.4792C90.2934 80.2944 92.5676 82.2685 92.7411 84.7385C92.9627 87.967 90.7174 90.7092 87.5181 91.1468C86.5448 91.283 85.6005 91.2052 84.6946 90.8259C83.6539 90.3981 82.9697 89.6104 82.6035 88.5893Z" fill="white"/>
<path d="M47.2766 25.7016C44.7711 24.4082 44.3375 20.4018 44.9542 18.5444C44.9927 21.1797 45.5227 23.6206 47.2766 25.7016Z" fill="white"/>
<path d="M47.6138 23.4552C48.9821 23.2607 49.3869 22.6967 49.3387 21.2867C49.7627 21.8021 49.888 23.6886 49.3869 24.3401C49.146 24.6513 48.828 24.7097 48.5485 24.4763C48.2209 24.1943 47.9703 23.8442 47.6138 23.4552Z" fill="white"/>
<path d="M16.4106 25.371C17.6923 25.2154 18.0585 24.7389 18.1645 23.2413C18.4439 24.1263 18.6752 25.0112 18.3187 25.935C18.0488 26.6449 17.567 26.7324 17.0467 26.1878C16.825 25.9544 16.6516 25.6822 16.4106 25.371Z" fill="white"/>
<path d="M14.8398 26.0517C13.298 24.5152 13.3366 22.5801 13.6353 20.5768C13.7606 21.5104 13.8184 22.4634 14.0207 23.3775C14.2231 24.2916 14.57 25.1862 14.8398 26.0517Z" fill="white"/>
<path d="M50.5913 25.5557C51.7091 24.1165 51.5068 22.5509 51.1502 20.9658C52.0271 22.794 51.9501 25.0014 50.5913 25.5557Z" fill="white"/>
<path d="M19.6294 27.1602C20.2172 25.6529 20.2172 25.6529 19.8799 22.8134C20.728 24.4957 20.7569 26.7907 19.6294 27.1602Z" fill="white"/>
<path d="M46.6113 17.5039C47.1413 17.9318 47.6616 18.3402 48.1724 18.7584C48.1531 18.7875 48.1338 18.807 48.1146 18.8361C47.5846 18.4472 47.0642 18.0582 46.5342 17.6692C46.5342 17.6595 46.5535 17.6206 46.6113 17.5039Z" fill="white"/>
<path d="M16.7189 23.8345C16.1889 23.6206 16.1118 23.3483 16.3816 22.7454C16.4973 23.1441 16.5936 23.4455 16.7189 23.8345Z" fill="white"/>
<path d="M47.739 21.8702C47.3921 21.6368 47.4306 21.3062 47.6619 20.9172C47.7486 21.2186 47.8354 21.5201 47.9221 21.8215C47.8643 21.841 47.7968 21.8507 47.739 21.8702Z" fill="white"/>
<path d="M20.3908 69.9281C20.9882 65.7661 22.9541 62.5473 26.7027 60.6219C30.0851 58.8812 33.8915 59.6592 36.2235 62.4501C36.58 62.8779 36.8788 63.3642 37.139 63.8698C37.3799 64.3561 37.5341 64.8909 37.7268 65.4257C38.1411 64.2588 38.7482 63.2183 39.5673 62.3042C42.1788 59.4063 46.4092 58.6867 49.5411 60.6219C52.4224 62.3917 53.2608 65.8925 51.6611 68.8682C50.9191 70.2393 49.7531 71.0853 48.5774 71.9216C45.8214 73.886 42.7088 74.9751 39.3843 75.4905C36.6379 75.9086 33.8915 75.9864 31.1354 75.6558C26.9147 75.1501 23.2335 73.3997 20.1017 70.531C15.7267 66.5343 12.7202 61.6818 11.6216 55.7791C10.3014 48.6998 11.506 42.1163 15.7556 36.2136C17.7793 33.4033 20.4968 31.4778 23.5419 29.9608C26.375 28.5508 29.3623 27.5978 32.5038 27.238C35.1924 26.9268 37.8135 27.3352 40.3864 28.0938C44.0676 29.1829 47.4789 30.8069 50.5047 33.2088C53.5595 35.6302 55.5928 38.8198 56.9997 42.4372C58.3488 45.8991 58.9463 49.5069 58.715 53.2216C58.3777 58.784 56.4119 63.7142 52.8657 68.0027C52.6826 68.2264 52.4706 68.4209 52.2586 68.6251C52.1815 68.7029 52.0851 68.7612 51.9117 68.7709C52.0273 68.5862 52.1237 68.382 52.2489 68.2069C53.8775 66.0481 55.2651 63.7531 56.2384 61.2151C57.6935 57.442 58.291 53.5425 57.8574 49.5166C57.2792 44.1974 55.3904 39.4324 51.7286 35.4843C49.7435 33.3547 47.2862 31.896 44.6939 30.661C42.2174 29.4843 39.6348 28.6383 36.927 28.2202C34.0553 27.7728 31.2318 28.084 28.4661 28.8814C23.5515 30.3012 19.3886 32.8879 16.2471 37.0208C14.0885 39.8603 12.778 43.0888 12.2383 46.609C10.8218 55.7986 13.7127 63.4809 20.2848 69.8601C20.333 69.899 20.3908 69.9281 20.3908 69.9281Z" fill="black"/>
</g>
<defs>
<clipPath id="clip0_1_595">
<rect width="94.2254" height="92.9167" fill="white"/>
</clipPath>
</defs>
</svg>
